PathFileType	3	(X/Y/Z)	D:\minhoCalibration\240510\subject5_KPNP\preferred\preferred02.trc
DataRate	CameraRate	NumFrames	NumMarkers	Units	OrigDataRate	OrigDataStartFrame	OrigNumFrames
200.0	200.0	33	10	mm	200.0	210	151	
Frame#	Time	Left_Ankle_Outer1			Left_Ankle_Inner1			Left_Knee_Outer1			Left_Knee_Inner1			Left_Wrist1			Right_Wrist1			Right_Knee_Inner1			Right_Knee_Outer1			Right_Ankle_Inner1			Right_Ankle_Outer1			
		X1	Y1	Z1	X2	Y2	Z2	X3	Y3	Z3	X4	Y4	Z4	X5	Y5	Z5	X6	Y6	Z6	X7	Y7	Z7	X8	Y8	Z8	X9	Y9	Z9	X10	Y10	Z10	
210	1.04	-617.67822	75.19442	-642.62543	-653.54138	85.150406	-611.85358	-476.76498	531.59711	-567.58411	-557.71686	517.46381	-521.89349	-502.90604	1011.2182	-724.41431	-829.2287	1048.2592	-697.7113	-903.6109	541.17218	-488.47446	-978.18774	595.81958	-510.1105	-854.49908	261.61255	-847.49164	-914.60736	327.34253	-888.58081
211	1.045	-617.45551	75.338379	-642.9176	-653.23462	85.298965	-612.04578	-475.85419	531.39642	-569.17639	-556.20947	517.42609	-522.73151	-499.99829	1011.7963	-724.3429	-825.33386	1051.0061	-693.49799	-899.6048	550.14972	-470.12448	-974.57434	604.5896	-491.53879	-852.27728	269.65213	-830.39954	-913.50787	335.48245	-870.54822
212	1.05	-617.21381	75.392029	-643.1676	-653.56421	85.973549	-611.34204	-474.7677	531.3078	-570.81543	-554.68048	517.50739	-523.60461	-497.34378	1012.2403	-724.73016	-822.10968	1055.0608	-686.961	-895.0968	559.07715	-452.42633	-970.33099	613.5882	-473.3714	-851.50562	278.26926	-812.25897	-912.20984	343.92706	-852.3645
213	1.055	-616.95502	75.510841	-643.48065	-652.85284	85.894318	-612.20203	-473.70673	531.42102	-572.70892	-553.1297	517.61157	-524.58447	-494.94504	1012.6587	-725.14899	-819.11597	1057.1921	-682.10718	-890.34155	569.0473	-434.71722	-965.8974	623.08588	-454.79541	-849.61542	286.53937	-794.79419	-910.828	352.53409	-834.0722
214	1.06	-616.68817	75.476921	-643.80853	-653.93011	87.65567	-610.27924	-472.93256	531.15607	-574.30505	-551.75989	517.78131	-525.49451	-492.65286	1013.1144	-725.69031	-815.32697	1060.4657	-676.80884	-885.1449	577.93091	-416.41437	-960.20728	633.11902	-436.96194	-848.34033	295.20425	-777.10626	-909.49292	361.49506	-815.63934
215	1.065	-616.40863	75.72776	-644.05933	-652.50275	86.662483	-612.23956	-471.77512	531.38354	-576.26703	-550.36365	517.94623	-526.52466	-490.41055	1013.6211	-726.33905	-811.24261	1064.087	-671.73022	-879.258	588.10547	-398.86307	-955.01801	643.52106	-418.00165	-847.04181	304.18958	-759.5835	-908.26288	370.72607	-797.20111
216	1.07	-616.16364	75.963501	-644.37738	-653.79492	88.331924	-609.82379	-471.17801	531.2074	-577.9975	-549.04089	518.15686	-527.4881	-488.26868	1014.0869	-727.24707	-808.33685	1067.2235	-665.51764	-872.91089	598.86389	-381.37061	-947.61316	653.93518	-400.68951	-845.87384	313.76712	-742.52441	-907.32367	380.46744	-779.00781
217	1.075	-615.98987	76.066551	-644.6358	-653.35449	88.860329	-611.11987	-470.20285	531.29376	-579.80072	-547.72437	518.3504	-528.55939	-485.37515	1015.4209	-728.22925	-804.78003	1070.7881	-659.56219	-865.81873	609.19153	-364.2045	-941.80048	665.13123	-381.89514	-845.01923	323.61185	-725.24152	-906.72266	390.44708	-760.72864
218	1.08	-615.80133	76.24379	-644.86401	-652.93463	88.540527	-611.6156	-469.53976	531.29401	-581.52899	-546.51892	518.28625	-529.8764	-483.58954	1015.899	-729.35681	-800.96594	1073.9142	-654.03479	-858.65143	620.43451	-347.20514	-933.99756	675.98792	-364.9801	-844.16205	333.91711	-708.22253	-906.37335	400.84753	-742.63385
219	1.085	-615.61267	76.484253	-645.17377	-653.20746	89.303864	-610.01416	-468.81461	531.33392	-583.52655	-545.67401	519.10602	-529.32642	-482.01825	1016.3185	-730.70392	-797.42023	1077.1104	-647.91998	-850.68805	631.79584	-329.97482	-926.8288	687.93481	-346.6579	-843.66162	344.62106	-691.40625	-906.13196	411.74506	-724.76721
220	1.09	-615.38654	76.727867	-645.37219	-653.04913	89.386993	-610.9873	-468.03528	531.40887	-585.03839	-543.86749	518.98566	-531.49017	-480.51584	1016.7477	-732.25177	-793.21936	1080.3715	-642.25812	-842.5448	643.08215	-314.0318	-918.13385	699.67358	-330.09634	-842.95435	355.9213	-675.05432	-906.1947	422.94019	-706.83862
221	1.095	-615.3634	77.070183	-645.54913	-652.35754	89.530151	-611.00293	-467.42816	531.24908	-586.70245	-542.64478	519.28369	-532.28918	-479.51941	1017.0169	-733.87604	-788.87427	1083.9513	-636.34979	-834.02039	654.68884	-297.78638	-909.89417	711.74762	-312.93665	-842.41998	367.53333	-658.99042	-906.15625	434.81888	-689.59149
222	1.1	-615.15826	77.314659	-645.73718	-652.28772	89.828636	-611.12744	-466.38303	531.55389	-588.52844	-541.91632	520.02557	-531.45636	-478.40347	1017.2875	-735.85034	-785.54974	1087.3344	-629.87231	-825.16559	666.44543	-281.89548	-900.81836	723.73383	-296.40414	-842.07068	379.50848	-643.1507	-906.06134	446.91556	-672.14911
223	1.105	-615.01721	77.611206	-645.87579	-652.47577	90.579643	-611.09503	-465.80008	531.56677	-590.21625	-539.82465	519.79065	-534.00299	-477.89282	1017.2539	-737.81201	-781.09534	1090.6229	-623.8822	-815.78296	678.38068	-266.23669	-891.52014	736.52039	-279.95969	-841.8241	391.54059	-627.52631	-906.09924	459.55777	-654.98633
224	1.11	-614.78882	78.028542	-646.04376	-651.77667	90.42514	-611.34943	-465.01846	531.65015	-591.86456	-538.36707	519.97174	-534.6214	-478.20181	1016.8649	-739.88251	-776.36328	1093.811	-617.76019	-806.20984	690.46069	-251.26645	-881.8313	749.14227	-264.17914	-841.87927	404.04767	-612.09967	-906.08521	472.70923	-638.16949
225	1.115	-614.20215	78.202377	-646.45721	-651.12848	91.462395	-610.91718	-464.24686	531.84259	-593.61029	-536.97076	520.24792	-534.9726	-477.7999	1016.7288	-742.33441	-771.86444	1097.6217	-611.79041	-795.91772	702.49982	-236.23979	-871.26746	762.10986	-248.75873	-842.24664	416.89243	-596.87427	-906.27435	486.38681	-621.49701
226	1.12	-614.01294	78.424026	-646.77594	-650.94318	90.926651	-611.96643	-463.37759	531.83313	-595.38641	-535.58392	521.72998	-532.35919	-478.62354	1016.0281	-744.68439	-766.76288	1100.9937	-605.56598	-785.26306	714.48779	-221.79724	-860.5025	775.20087	-233.24019	-842.79767	430.022	-581.92493	-906.45642	500.41849	-605.10583
227	1.125	-613.68707	78.962212	-647.08514	-650.30554	91.772072	-611.69324	-462.44946	531.81158	-597.13556	-533.07355	521.96613	-534.13397	-479.25455	1015.3464	-747.31824	-763.15277	1105.4628	-598.98035	-774.78381	726.7666	-207.04512	-849.08429	788.44177	-218.58882	-843.76471	443.43292	-567.35974	-906.81122	514.82373	-588.8512
228	1.13	-613.5849	79.216011	-647.29553	-649.73444	92.277863	-611.6969	-461.37823	531.86798	-598.86676	-531.71979	521.64368	-534.41791	-480.19861	1014.5143	-750.02002	-759.31592	1110.1345	-593.58936	-763.23065	738.8974	-193.67804	-836.53418	801.77826	-204.735	-845.07959	457.23953	-552.89404	-907.49371	529.62616	-572.75562
229	1.135	-613.69946	79.492325	-647.38788	-649.73859	92.945221	-611.21558	-460.13257	531.97345	-600.71155	-528.79279	521.2085	-537.79132	-481.655	1013.3641	-752.74756	-755.18365	1115.1537	-588.41797	-751.22839	751.19385	-180.8949	-823.98883	814.67407	-191.29362	-846.68622	471.41599	-538.66162	-908.45874	544.67798	-556.53809
230	1.14	-613.96722	79.811256	-647.38318	-649.76971	93.283852	-610.97064	-458.99319	531.81573	-602.61603	-526.4342	521.95044	-536.34857	-483.48666	1012.1854	-755.39526	-752.59332	1120.6494	-584.17035	-738.62683	763.18756	-168.82913	-810.47693	828.14691	-177.953	-848.77716	485.95609	-524.57111	-909.65393	560.336	-540.66791
231	1.145	-614.48523	80.212509	-647.2038	-649.50208	93.548676	-610.79437	-457.63763	531.83435	-604.46637	-523.93677	521.89551	-536.70154	-485.60519	1010.8627	-758.10803	-741.86969	1121.3667	-573.48096	-725.60608	775.15668	-157.13704	-796.22003	841.34546	-165.64345	-851.02026	500.58572	-510.48117	-911.01147	576.33276	-524.99103
232	1.15	-615.15417	80.690025	-646.86237	-650.23541	94.081955	-609.73169	-456.21783	531.6153	-606.27808	-521.12744	521.67413	-537.08759	-488.78479	1008.9958	-760.43921	-733.64697	1125.2754	-567.5993	-711.96912	786.78168	-146.50023	-781.51575	854.56519	-153.60947	-853.90601	515.76312	-496.48624	-912.55524	592.7735	-508.50809
233	1.155	-615.97394	81.019867	-646.32446	-650.59637	94.651482	-608.78851	-454.84256	531.50977	-607.81421	-518.01318	521.43463	-537.0871	-490.54984	1007.9789	-763.26489	-727.09515	1128.8855	-561.8761	-697.93707	798.24719	-136.41449	-766.24725	867.80231	-142.01947	-857.00018	531.1012	-482.41016	-914.13049	609.16028	-492.31503
234	1.16	-617.02954	81.576187	-645.64734	-651.18591	95.319	-607.86591	-453.30298	531.32031	-609.30084	-514.72601	521.11432	-536.96417	-493.68204	1006.3271	-765.56396	-721.49585	1132.0554	-557.93933	-683.44836	809.40338	-127.11883	-749.72058	880.42963	-131.98669	-860.33423	546.4657	-468.05392	-915.71771	626.12152	-476.258
235	1.165	-618.17499	82.073822	-644.78192	-651.52759	96.51342	-606.15448	-451.99017	530.98334	-610.47235	-511.28751	520.80676	-536.52844	-499.28894	1004.2167	-766.55688	-714.81757	1138.1495	-547.91705	-668.53619	820.36963	-118.99221	-733.38562	893.65985	-121.726	-863.74573	562.14948	-453.25458	-917.34253	643.24451	-459.78415
236	1.17	-619.341	82.968132	-643.58038	-651.9693	97.492989	-604.25635	-450.47864	530.76245	-611.54651	-507.54874	520.06732	-535.91901	-502.03372	1002.563	-769.19525	-708.32269	1141.854	-545.33813	-653.4989	830.90875	-111.16655	-716.05164	905.7146	-113.24226	-867.80463	577.84741	-438.93643	-918.84052	660.52551	-442.95139
237	1.175	-620.72144	83.765457	-642.06763	-652.46796	98.418793	-601.84406	-448.94107	530.5788	-612.33826	-503.87067	520.04651	-535.14142	-506.16269	1000.7138	-771.00244	-701.63751	1144.8688	-541.79254	-638.00275	840.94727	-104.30432	-698.8205	918.21423	-104.73773	-871.42566	593.87079	-422.77209	-920.20874	678.23456	-426.04462
238	1.18	-622.27869	84.550941	-640.33948	-653.73413	99.534332	-599.58887	-447.47415	530.34247	-612.87183	-499.82535	519.90344	-534.20905	-510.54828	998.76282	-772.6344	-695.54309	1149.03	-536.53571	-622.93402	850.71509	-97.720345	-680.41296	929.92017	-98.055	-875.18298	610.06177	-406.37271	-921.35657	695.97791	-408.43753
239	1.185	-623.76849	85.735344	-638.28571	-654.39929	100.57285	-596.99463	-445.97305	530.44263	-613.18744	-495.82169	519.96454	-533.04242	-514.78925	997.1239	-774.00079	-688.09052	1152.015	-534.3075	-607.43634	859.9967	-92.125839	-662.01508	941.28973	-91.590157	-879.12366	626.21301	-389.29156	-922.26538	713.96375	-390.55823
240	1.19	-625.36469	86.874397	-636.16644	-654.92291	101.71319	-594.53076	-444.54892	530.33624	-613.49854	-491.61758	519.90033	-532.10742	-522.14496	994.47937	-774.34839	-682.02979	1155.5283	-529.89819	-591.83698	868.78589	-87.293358	-643.20819	951.69104	-86.801819	-883.02319	642.66956	-371.48566	-922.94073	731.96222	-371.86685
241	1.195	-626.9621	87.933212	-633.8642	-656.07709	102.90105	-591.36346	-443.02701	530.54669	-613.77893	-487.75482	520.05603	-531.05896	-524.52789	993.03357	-776.25153	-674.89484	1159.0021	-526.85278	-576.25806	877.17035	-83.298843	-624.28357	962.17548	-82.374161	-886.65411	659.2467	-352.80008	-923.29138	749.98132	-352.58746
242	1.2	-628.63202	89.019981	-631.62201	-656.55963	104.02958	-588.49591	-442.00949	530.57581	-613.89337	-483.97647	520.19385	-530.05072	-533.13232	989.33545	-776.06012	-668.08215	1161.9344	-524.21924	-560.75684	885.04877	-80.040489	-605.05127	971.73816	-79.436981	-890.15308	675.89502	-333.11948	-923.31738	768.02551	-332.48663
